<svg width="25" height="19" viewBox="0 0 25 19" fill="none" xmlns="http://www.w3.org/2000/svg">
<path d="M15.8 9.5C15.8 10.4093 15.4523 11.2814 14.8335 11.9244C14.2146 12.5673 13.3752 12.9286 12.5 12.9286C11.6248 12.9286 10.7854 12.5673 10.1665 11.9244C9.54768 11.2814 9.2 10.4093 9.2 9.5C9.2 8.59069 9.54768 7.71862 10.1665 7.07563C10.7854 6.43265 11.6248 6.07143 12.5 6.07143C13.3752 6.07143 14.2146 6.43265 14.8335 7.07563C15.4523 7.71862 15.8 8.59069 15.8 9.5Z" stroke="black" stroke-width="3" stroke-linecap="round" stroke-linejoin="round"/>
<path d="M1.5 9.5C3.26 4.81771 7.3696 1.5 12.5 1.5C17.6304 1.5 21.74 4.81771 23.5 9.5C21.74 14.1823 17.6304 17.5 12.5 17.5C7.3696 17.5 3.26 14.1823 1.5 9.5Z" stroke="black" stroke-width="3" stroke-linecap="round" stroke-linejoin="round"/>
</svg>
