<svg width="40" height="40" viewBox="0 0 40 40" fill="none" xmlns="http://www.w3.org/2000/svg">
<g filter="url(#filter0_i_24_3594)">
<rect width="40" height="40" fill="#3FB982"/>
<rect x="0.5" y="0.5" width="39" height="39" stroke="#07874D"/>
<path d="M8 28.0752V12.0752H32V28.0752H8ZM14.9733 25.1019H25.0267V23.0485H14.9733V25.1019ZM10.9733 21.1019H13.0267V19.0485H10.9733V21.1019ZM14.9733 21.1019H17.0267V19.0485H14.9733V21.1019ZM18.9733 21.1019H21.0267V19.0485H18.9733V21.1019ZM22.9733 21.1019H25.0267V19.0485H22.9733V21.1019ZM26.9733 21.1019H29.0267V19.0485H26.9733V21.1019ZM10.9733 17.1019H13.0267V15.0485H10.9733V17.1019ZM14.9733 17.1019H17.0267V15.0485H14.9733V17.1019ZM18.9733 17.1019H21.0267V15.0485H18.9733V17.1019ZM22.9733 17.1019H25.0267V15.0485H22.9733V17.1019ZM26.9733 17.1019H29.0267V15.0485H26.9733V17.1019Z" fill="white"/>
</g>
<defs>
<filter id="filter0_i_24_3594" x="0" y="0" width="40" height="40" filterUnits="userSpaceOnUse" color-interpolation-filters="sRGB">
<feFlood flood-opacity="0" result="BackgroundImageFix"/>
<feBlend mode="normal" in="SourceGraphic" in2="BackgroundImageFix" result="shape"/>
<feColorMatrix in="SourceAlpha" type="matrix" values="0 0 0 0 0 0 0 0 0 0 0 0 0 0 0 0 0 0 127 0" result="hardAlpha"/>
<feOffset dy="-3"/>
<feComposite in2="hardAlpha" operator="arithmetic" k2="-1" k3="1"/>
<feColorMatrix type="matrix" values="0 0 0 0 1 0 0 0 0 1 0 0 0 0 1 0 0 0 0.32 0"/>
<feBlend mode="normal" in2="shape" result="effect1_innerShadow_24_3594"/>
</filter>
</defs>
</svg>
