<svg width="70" height="28" viewBox="0 0 70 28" fill="none" xmlns="http://www.w3.org/2000/svg">
<path d="M3.11814 26.5645C1.39578 26.5645 0 25.1687 0 23.4463V4.38957C0 2.75829 1.32275 1.43555 2.95403 1.43555H22.1749C23.8062 1.43555 25.1289 2.75829 25.1289 4.38957V23.4463C25.1289 25.1687 23.7331 26.5645 22.0108 26.5645H3.11814Z" fill="#292524"/>
<path d="M12.5646 22.8891C12.5646 22.8891 20.4346 22.8891 21.59 22.8891C22.7453 22.8891 22.8946 22.1572 22.8946 21.7001C22.8946 17.5259 22.8946 3.40485 22.8946 3.40485H23.1597V23.4463C23.1597 24.0797 22.6444 24.595 22.0109 24.595H12.5646H3.11827C2.4848 24.595 1.96948 24.0797 1.96948 23.4463V3.39746H2.23452V21.7001C2.23452 22.1572 2.38387 22.8891 3.53922 22.8891C4.69457 22.8891 12.5646 22.8891 12.5646 22.8891Z" fill="#53EAFD"/>
<path d="M12.5646 20.9173C12.5646 20.9173 19.6929 20.9173 20.7645 20.9173C21.8362 20.9173 21.974 20.2387 21.974 19.8153C21.974 15.9455 21.974 3.40485 21.974 3.40485H22.2194V21.4334C22.2194 22.0209 21.7418 22.4985 21.1543 22.4985H12.5638H4.02505C3.43753 22.4985 2.95996 22.0209 2.95996 21.4334V3.39746H3.20531V19.8153C3.20531 20.2387 3.34316 20.9173 4.41482 20.9173C5.48647 20.9173 12.6147 20.9173 12.6147 20.9173H12.5646Z" fill="#00BCFF"/>
<path d="M12.5645 19.0899C12.5645 19.0899 18.9255 19.0899 19.9094 19.0899C20.8941 19.0899 21.0204 18.4663 21.0204 18.0773C21.0204 14.5226 21.0204 3.40485 21.0204 3.40485H21.2461V19.5634C21.2461 20.1025 20.8071 20.5415 20.268 20.5415H12.5645H4.95956C4.42045 20.5415 3.98145 20.1025 3.98145 19.5634V3.39746H4.2071V18.0765C4.2071 18.4654 4.33429 19.0891 5.31814 19.0891C6.302 19.0891 12.663 19.0891 12.663 19.0891L12.5645 19.0899Z" fill="#2B7FFF"/>
<path d="M12.5646 17.3437C12.5646 17.3437 18.1576 17.3437 19.0545 17.3437C19.9513 17.3437 20.067 16.7759 20.067 16.4214C20.067 13.1827 20.067 3.40567 20.067 3.40567H20.273V17.7762C20.273 18.2677 19.8734 18.6673 19.3819 18.6673H12.5655H5.74904C5.25752 18.6673 4.85791 18.2677 4.85791 17.7762V3.39746H5.06387V16.4206C5.06387 16.7751 5.17957 17.3429 6.07645 17.3429C6.97332 17.3429 12.5663 17.3429 12.5663 17.3429L12.5646 17.3437Z" fill="#155DFC"/>
<path d="M12.5645 15.7404C12.5645 15.7404 17.3985 15.7404 18.2092 15.7404C19.0199 15.7404 19.1241 15.2267 19.1241 14.9067C19.1241 11.9789 19.1241 3.40485 19.1241 3.40485H19.3096V16.1309C19.3096 16.5749 18.9485 16.9367 18.5038 16.9367H12.5637H6.62366C6.17974 16.9367 5.81787 16.5757 5.81787 16.1309V3.39746H6.00332V14.9067C6.00332 15.2267 6.10753 15.7404 6.91825 15.7404C7.72896 15.7404 12.5629 15.7404 12.5629 15.7404H12.5645Z" fill="#1447E6"/>
<path d="M12.5644 14.2592C12.5644 14.2592 16.6951 14.2592 17.4254 14.2592C18.1557 14.2592 18.2501 13.7964 18.2501 13.5076C18.2501 10.8687 18.2501 3.40485 18.2501 3.40485H18.4175V14.6104C18.4175 15.0109 18.0917 15.3366 17.6913 15.3366H12.5636H7.43592C7.03548 15.3366 6.70972 15.0109 6.70972 14.6104V3.39746H6.87711V13.5068C6.87711 13.7956 6.97148 14.2584 7.70178 14.2584C8.43208 14.2584 12.5628 14.2584 12.5628 14.2584L12.5644 14.2592Z" fill="#193CB8"/>
<path d="M39.8281 11.348C39.7599 10.7429 39.4787 10.2741 38.9844 9.94176C38.4901 9.60511 37.8679 9.43679 37.1179 9.43679C36.581 9.43679 36.1165 9.52202 35.7244 9.69247C35.3324 9.85866 35.0277 10.0888 34.8104 10.3828C34.5973 10.6726 34.4908 11.0028 34.4908 11.3736C34.4908 11.6847 34.5632 11.9531 34.7081 12.179C34.8572 12.4048 35.0511 12.5945 35.2898 12.7479C35.5327 12.897 35.7926 13.0227 36.0696 13.125C36.3466 13.223 36.6129 13.304 36.8686 13.3679L38.147 13.7003C38.5646 13.8026 38.9929 13.9411 39.4318 14.1158C39.8707 14.2905 40.2777 14.5206 40.6527 14.8061C41.0277 15.0916 41.3303 15.4453 41.5604 15.8672C41.7947 16.2891 41.9119 16.794 41.9119 17.3821C41.9119 18.1236 41.7202 18.782 41.3366 19.3572C40.9574 19.9325 40.4055 20.3864 39.6811 20.7188C38.9609 21.0511 38.0895 21.2173 37.0668 21.2173C36.0866 21.2173 35.2386 21.0618 34.5227 20.7507C33.8068 20.4396 33.2464 19.9986 32.8416 19.4276C32.4368 18.8523 32.2131 18.1705 32.1705 17.3821H34.152C34.1903 17.8551 34.3438 18.2493 34.6122 18.5646C34.8849 18.8757 35.2322 19.108 35.6541 19.2614C36.0803 19.4105 36.5469 19.4851 37.054 19.4851C37.6122 19.4851 38.1087 19.3977 38.5433 19.223C38.9822 19.044 39.3274 18.7969 39.5788 18.4815C39.8303 18.1619 39.956 17.7891 39.956 17.3629C39.956 16.9751 39.8452 16.6577 39.6236 16.4105C39.4063 16.1634 39.1101 15.9588 38.7351 15.7969C38.3643 15.6349 37.9446 15.4922 37.4759 15.3686L35.929 14.9467C34.8807 14.6612 34.0497 14.2415 33.4361 13.6875C32.8267 13.1335 32.522 12.4006 32.522 11.4886C32.522 10.7344 32.7266 10.076 33.1357 9.51349C33.5447 8.95099 34.0987 8.5142 34.7976 8.20312C35.4964 7.88778 36.2848 7.73011 37.1626 7.73011C38.049 7.73011 38.831 7.88565 39.5085 8.19673C40.1903 8.50781 40.7273 8.93608 41.1193 9.48153C41.5114 10.0227 41.7159 10.6449 41.733 11.348H39.8281ZM48.2544 21.1982C47.334 21.1982 46.5307 20.9872 45.8446 20.5653C45.1586 20.1435 44.6259 19.5533 44.2466 18.7947C43.8674 18.0362 43.6777 17.1499 43.6777 16.1357C43.6777 15.1172 43.8674 14.2266 44.2466 13.4638C44.6259 12.701 45.1586 12.1087 45.8446 11.6868C46.5307 11.2649 47.334 11.054 48.2544 11.054C49.1749 11.054 49.9782 11.2649 50.6642 11.6868C51.3503 12.1087 51.883 12.701 52.2623 13.4638C52.6415 14.2266 52.8311 15.1172 52.8311 16.1357C52.8311 17.1499 52.6415 18.0362 52.2623 18.7947C51.883 19.5533 51.3503 20.1435 50.6642 20.5653C49.9782 20.9872 49.1749 21.1982 48.2544 21.1982ZM48.2608 19.5938C48.8574 19.5938 49.3517 19.4361 49.7438 19.1207C50.1358 18.8054 50.4256 18.3857 50.6131 17.8615C50.8049 17.3374 50.9007 16.7599 50.9007 16.1293C50.9007 15.5028 50.8049 14.9276 50.6131 14.4034C50.4256 13.875 50.1358 13.451 49.7438 13.1314C49.3517 12.8118 48.8574 12.652 48.2608 12.652C47.66 12.652 47.1614 12.8118 46.7651 13.1314C46.373 13.451 46.0811 13.875 45.8894 14.4034C45.7019 14.9276 45.6081 15.5028 45.6081 16.1293C45.6081 16.7599 45.7019 17.3374 45.8894 17.8615C46.0811 18.3857 46.373 18.8054 46.7651 19.1207C47.1614 19.4361 47.66 19.5938 48.2608 19.5938ZM56.8757 7.90909V21H54.9645V7.90909H56.8757ZM63.5826 21.1982C62.6621 21.1982 61.8588 20.9872 61.1728 20.5653C60.4867 20.1435 59.954 19.5533 59.5748 18.7947C59.1955 18.0362 59.0059 17.1499 59.0059 16.1357C59.0059 15.1172 59.1955 14.2266 59.5748 13.4638C59.954 12.701 60.4867 12.1087 61.1728 11.6868C61.8588 11.2649 62.6621 11.054 63.5826 11.054C64.503 11.054 65.3063 11.2649 65.9924 11.6868C66.6784 12.1087 67.2111 12.701 67.5904 13.4638C67.9696 14.2266 68.1593 15.1172 68.1593 16.1357C68.1593 17.1499 67.9696 18.0362 67.5904 18.7947C67.2111 19.5533 66.6784 20.1435 65.9924 20.5653C65.3063 20.9872 64.503 21.1982 63.5826 21.1982ZM63.589 19.5938C64.1855 19.5938 64.6799 19.4361 65.0719 19.1207C65.464 18.8054 65.7537 18.3857 65.9412 17.8615C66.133 17.3374 66.2289 16.7599 66.2289 16.1293C66.2289 15.5028 66.133 14.9276 65.9412 14.4034C65.7537 13.875 65.464 13.451 65.0719 13.1314C64.6799 12.8118 64.1855 12.652 63.589 12.652C62.9881 12.652 62.4895 12.8118 62.0932 13.1314C61.7012 13.451 61.4093 13.875 61.2175 14.4034C61.03 14.9276 60.9363 15.5028 60.9363 16.1293C60.9363 16.7599 61.03 17.3374 61.2175 17.8615C61.4093 18.3857 61.7012 18.8054 62.0932 19.1207C62.4895 19.4361 62.9881 19.5938 63.589 19.5938Z" fill="black"/>
</svg>
