<svg width="40" height="40" viewBox="0 0 40 40" fill="none" xmlns="http://www.w3.org/2000/svg">
<g filter="url(#filter0_i_24_3579)">
<rect width="40" height="40" fill="#686868"/>
<rect x="0.5" y="0.5" width="39" height="39" stroke="#2A2524"/>
<path d="M20 9C21.4587 9 22.8576 9.57946 23.8891 10.6109C24.9205 11.6424 25.5 13.0413 25.5 14.5C25.5 15.9587 24.9205 17.3576 23.8891 18.3891C22.8576 19.4205 21.4587 20 20 20C18.5413 20 17.1424 19.4205 16.1109 18.3891C15.0795 17.3576 14.5 15.9587 14.5 14.5C14.5 13.0413 15.0795 11.6424 16.1109 10.6109C17.1424 9.57946 18.5413 9 20 9ZM20 31C20 31 31 31 31 28.25C31 24.95 25.6375 21.375 20 21.375C14.3625 21.375 9 24.95 9 28.25C9 31 20 31 20 31Z" fill="white"/>
</g>
<defs>
<filter id="filter0_i_24_3579" x="0" y="0" width="40" height="40" filterUnits="userSpaceOnUse" color-interpolation-filters="sRGB">
<feFlood flood-opacity="0" result="BackgroundImageFix"/>
<feBlend mode="normal" in="SourceGraphic" in2="BackgroundImageFix" result="shape"/>
<feColorMatrix in="SourceAlpha" type="matrix" values="0 0 0 0 0 0 0 0 0 0 0 0 0 0 0 0 0 0 127 0" result="hardAlpha"/>
<feOffset dy="-3"/>
<feComposite in2="hardAlpha" operator="arithmetic" k2="-1" k3="1"/>
<feColorMatrix type="matrix" values="0 0 0 0 1 0 0 0 0 1 0 0 0 0 1 0 0 0 0.32 0"/>
<feBlend mode="normal" in2="shape" result="effect1_innerShadow_24_3579"/>
</filter>
</defs>
</svg>
