<svg width="24" height="29" viewBox="0 0 24 29" fill="none" xmlns="http://www.w3.org/2000/svg">
<path d="M14.8314 20.2778H21.9088V27.5M9.16954 8.72222H2.09216V1.5M22.5005 10.171C21.7069 8.16639 20.3781 6.42918 18.6651 5.15685C16.9521 3.88451 14.9238 3.12809 12.8105 2.97356C10.6973 2.81903 8.58392 3.27259 6.71069 4.28269C4.83746 5.29278 3.2795 6.8189 2.21389 8.68756M1.50049 18.829C2.29428 20.8332 3.62309 22.5701 5.3359 23.8421C7.04872 25.1142 9.07685 25.8704 11.1898 26.025C13.3028 26.1795 15.4159 25.7261 17.289 24.7163C19.162 23.7064 20.7199 22.1807 21.7857 20.3124" stroke="black" stroke-width="3" stroke-linecap="round" stroke-linejoin="round"/>
</svg>
