<svg width="16" height="12" viewBox="0 0 16 12" fill="none" xmlns="http://www.w3.org/2000/svg">
<path d="M5.5 5.25C6.74264 5.25 7.75 4.24264 7.75 3C7.75 1.75736 6.74264 0.75 5.5 0.75C4.25736 0.75 3.25 1.75736 3.25 3C3.25 4.24264 4.25736 5.25 5.5 5.25Z" stroke="#1D161E" stroke-width="1.5"/>
<path d="M10.5 5.25C11.4665 5.25 12.25 4.4665 12.25 3.5C12.25 2.5335 11.4665 1.75 10.5 1.75C9.5335 1.75 8.75 2.5335 8.75 3.5C8.75 4.4665 9.5335 5.25 10.5 5.25Z" stroke="#1D161E" stroke-width="1.5"/>
<path d="M1.25 11.25C1.25 8.90279 3.15279 7 5.5 7C7.84721 7 9.75 8.90279 9.75 11.25" stroke="#1D161E" stroke-width="1.5" stroke-linecap="round"/>
<path d="M10.5 7C12.2949 7 13.75 8.45507 13.75 10.25" stroke="#1D161E" stroke-width="1.5" stroke-linecap="round"/>
</svg>
